<svg xmlns="http://www.w3.org/2000/svg" version="1.1" xmlns:xlink="http://www.w3.org/1999/xlink" xmlns:svgjs="http://svgjs.dev/svgjs" width="1000" height="1125" viewBox="0 0 1000 1125"><g transform="matrix(1,0,0,1,0,0)"><svg viewBox="0 0 320 360" data-background-color="#ffffff" preserveAspectRatio="xMidYMid meet" height="1125" width="1000" xmlns="http://www.w3.org/2000/svg" xmlns:xlink="http://www.w3.org/1999/xlink"><g id="tight-bounds" transform="matrix(1,0,0,1,0,0)"><svg viewBox="0 0 320 360" height="360" width="320"><g><svg></svg></g><g><svg viewBox="0 0 320 360" height="360" width="320"><g><path xmlns="http://www.w3.org/2000/svg" d="M297.491 100.645c-12.426-21.51-112.674-79.355-137.491-79.355-24.817 0-125.028 57.845-137.491 79.355-11.591 20.02-11.591 138.726 0 158.746 12.463 21.474 112.674 79.319 137.491 79.319 24.817 0 125.064-57.845 137.491-79.355 11.591-20.02 11.591-138.69 0-158.71zM309.481 93.705c-14.461-24.998-119.469-86.295-149.481-86.295-30.012 0-135.02 61.297-149.481 86.295-14.025 24.199-14.025 148.391 0 172.59 14.461 24.998 119.469 86.295 149.481 86.295 30.012 0 135.02-61.297 149.481-86.259 14.025-24.235 14.025-148.427 0-172.626zM300.906 261.353c-12.753 22.055-115.472 81.317-140.906 81.318-25.434 0-128.153-59.298-140.906-81.354-11.881-20.529-11.881-142.178 0-162.707 12.753-22.019 115.472-81.281 140.906-81.281 25.434 0 128.153 59.298 140.906 81.318 11.881 20.529 11.881 142.178 0 162.706z" fill="#6936f5" fill-rule="nonzero" stroke="none" stroke-width="1" stroke-linecap="butt" stroke-linejoin="miter" stroke-miterlimit="10" stroke-dasharray="" stroke-dashoffset="0" font-family="none" font-weight="none" font-size="none" text-anchor="none" style="mix-blend-mode: normal" data-fill-palette-color="tertiary"></path></g><g transform="matrix(1,0,0,1,64.08532052161976,90)"><svg viewBox="0 0 191.82935895676047 180" height="180" width="191.82935895676047"><g><svg viewBox="0 0 191.82935895676047 180" height="180" width="191.82935895676047"><g><svg viewBox="0 0 191.82935895676047 180" height="180" width="191.82935895676047"><g><svg viewBox="0 0 191.82935895676047 180" height="180" width="191.82935895676047"><g><svg viewBox="0 0 191.82935895676047 180" height="180" width="191.82935895676047"><path d="M191.38 38.607C190.478 19.923 187.908 14.728 187.908 14.728 180.017-4.516 170.169-0.368 161.322 2.397 145.703 2.509 130.146 6.62 114.562 8.824 81.853 9.161 48.864 3.63 16.317 17.27 13.26 21.455-3.172 18.092 0.544 40.998 1.518 50.527 5.071 61.102 4.963 69.846 5.45 71.378 6.126 67.866 6.415 70.07 7.425 76.012 9.075 73.209 10.428 76.722 8.543 86.101 9.896 93.911 11.185 102.095 8.913 104.225 6 103.216 4.692 110.278 4.557 115.398 3.826 114.426 3.024 114.202 2.438 114.052 1.256 114.613 1.455 116.22 2.131 121.713-0.773 124.889 1.049 130.27-0.205 136.099 1.915 141.144 1.626 147.459 1.59 148.73 1.788 149.813 2.104 150.112 3.502 151.719 1.464 154.858 1.68 158.258 16.019 181.501 31.576 165.433 46.267 176.12 50.081 168.647 47.214 178.773 48.738 177.204 49.928 175.373 50.794 182.959 52.138 178.661 52.345 177.428 52.029 174.514 52.769 175.074 53.157 175.373 53.499 175.298 53.553 173.579 53.635 171.001 52.922 172.608 52.733 171.263 54.78 164.462 54.275 180.642 56.196 179.969 56.106 177.989 55.546 175.149 56.692 175.522 57.828 172.682 57.864 170.328 58.874 176.718 58.91 178.101 59.091 179.072 59.379 179.745 62.536 172.795 65.674 182.211 68.984 179.072 71.013 175.635 72.961 180.941 75.017 179.633 75.738 178.587 76.469 176.718 77.163 179.857 85.668 180.53 94.731 177.727 102.793 179.969 124.338 175.784 147.362 181.688 170.079 176.158 175.436 174.028 181 171.001 186.222 168.572 186.222 168.572 190.451 161.921 190.451 132.026S191.353 105.869 191.488 82.065C191.624 58.262 192.255 57.29 191.353 38.607Z" opacity="1" fill="#6936f5" data-fill-palette-color="tertiary"></path><g transform="matrix(1,0,0,1,31.584000000000003,19.1)"><svg width="128.66135895676047" viewBox="3 -36.43000030517578 33.04999923706055 36.43000030517578" height="141.8" data-palette-color="#ffffff"><path d="M36.05-18.23L36.05-18.23Q36.05-14.28 34.69-10.94 33.33-7.6 30.85-5.16 28.38-2.73 24.89-1.36 21.4 0 17.15 0L17.15 0 3 0 3-36.43 17.15-36.43Q21.4-36.43 24.89-35.05 28.38-33.68 30.85-31.25 33.33-28.83 34.69-25.49 36.05-22.15 36.05-18.23ZM27.4-18.23L27.4-18.23Q27.4-20.93 26.7-23.1 26-25.28 24.69-26.79 23.38-28.3 21.48-29.11 19.58-29.93 17.15-29.93L17.15-29.93 11.5-29.93 11.5-6.5 17.15-6.5Q19.58-6.5 21.48-7.31 23.38-8.13 24.69-9.64 26-11.15 26.7-13.33 27.4-15.5 27.4-18.23Z" opacity="1" transform="matrix(1,0,0,1,0,0)" fill="#ffffff" class="undefined-text-0" data-fill-palette-color="quaternary" id="text-0"></path></svg></g></svg></g></svg></g></svg></g><g></g></svg></g></svg></g></svg></g><defs></defs></svg><rect width="320" height="360" fill="none" stroke="none" visibility="hidden"></rect></g></svg></g></svg>